<svg xmlns="http://www.w3.org/2000/svg" width="1440" height="1152.8560000000002" viewBox="0 0 1440 1152.8560000000002"><g id="Desktop — 01 Sobre"><rect x="0" y="0" width="1440" height="1152.8560000000002" rx="0" fill="#FFFFFF"/><g id="Main"><g id="Página Sobre"><text x="256" y="135.51999999999998" font-family="Inter, Arial, sans-serif" font-size="41.6" font-weight="700" fill="#111827">Olá, eu sou Arthur Domingos</text><g id="Cargo"><text x="256" y="169.12" font-family="Inter, Arial, sans-serif" font-size="16" font-weight="600" fill="#374151">Desenvolvedor Fullstack · Estudante de Engenharia de Software</text></g><g id="Card Sobre mim (PT)"><rect x="256" y="195.45600000000002" width="928" height="306.20000000000005" rx="14" fill="#F3F4F6" stroke="#9CA3AF" stroke-width="1"/><text x="280" y="237.69600000000003" font-family="Inter, Arial, sans-serif" font-size="19.2" font-weight="700" fill="#111827">Sobre mim</text><rect x="280" y="274.25600000000003" width="880" height="10" rx="5" fill="#E5E7EB"/><rect x="280" y="299.85600000000005" width="880" height="10" rx="5" fill="#E5E7EB"/><rect x="280" y="325.456" width="545.6" height="10" rx="5" fill="#E5E7EB"/><rect x="280" y="367.05600000000004" width="880" height="10" rx="5" fill="#E5E7EB"/><rect x="280" y="392.65600000000006" width="880" height="10" rx="5" fill="#E5E7EB"/><rect x="280" y="418.25600000000003" width="545.6" height="10" rx="5" fill="#E5E7EB"/><rect x="280" y="459.85600000000005" width="748" height="10" rx="5" fill="#E5E7EB"/></g><g id="Card About me (EN)"><rect x="256" y="533.6560000000001" width="928" height="306.20000000000005" rx="14" fill="none" stroke="#9CA3AF" stroke-width="1" stroke-dasharray="6 4"/><text x="280" y="575.8960000000001" font-family="Inter, Arial, sans-serif" font-size="19.2" font-weight="700" fill="#111827">About me</text><rect x="382.15999999999997" y="559.6560000000001" width="30" height="18" rx="9" fill="#374151"/><text x="397.15999999999997" y="572.6560000000001" font-family="Inter, Arial, sans-serif" font-size="11" font-weight="600" fill="#fff" text-anchor="middle">EN</text><rect x="280" y="612.456" width="880" height="10" rx="5" fill="#E5E7EB"/><rect x="280" y="638.056" width="880" height="10" rx="5" fill="#E5E7EB"/><rect x="280" y="663.6560000000001" width="545.6" height="10" rx="5" fill="#E5E7EB"/><rect x="280" y="705.2560000000001" width="880" height="10" rx="5" fill="#E5E7EB"/><rect x="280" y="730.8560000000001" width="880" height="10" rx="5" fill="#E5E7EB"/><rect x="280" y="756.4560000000001" width="545.6" height="10" rx="5" fill="#E5E7EB"/><rect x="280" y="798.056" width="748" height="10" rx="5" fill="#E5E7EB"/></g><text x="256" y="878.6560000000001" font-family="Inter, Arial, sans-serif" font-size="24" font-weight="700" fill="#111827">Habilidades</text><g id="Chips"><rect x="256" y="896.8560000000001" width="126.816" height="29" rx="14.5" fill="#E5E7EB"/><text x="268" y="916.3560000000001" font-family="Inter, Arial, sans-serif" font-size="13.6" font-weight="400" fill="#374151">Vue.js (2 e 3)</text><rect x="390.81600000000003" y="896.8560000000001" width="75.408" height="29" rx="14.5" fill="#E5E7EB"/><text x="402.81600000000003" y="916.3560000000001" font-family="Inter, Arial, sans-serif" font-size="13.6" font-weight="400" fill="#374151">Vuetify</text><rect x="474.22400000000005" y="896.8560000000001" width="97.44" height="29" rx="14.5" fill="#E5E7EB"/><text x="486.22400000000005" y="916.3560000000001" font-family="Inter, Arial, sans-serif" font-size="13.6" font-weight="400" fill="#374151">TypeScript</text><rect x="579.664" y="896.8560000000001" width="97.44" height="29" rx="14.5" fill="#E5E7EB"/><text x="591.664" y="916.3560000000001" font-family="Inter, Arial, sans-serif" font-size="13.6" font-weight="400" fill="#374151">JavaScript</text><rect x="685.104" y="896.8560000000001" width="53.376000000000005" height="29" rx="14.5" fill="#E5E7EB"/><text x="697.104" y="916.3560000000001" font-family="Inter, Arial, sans-serif" font-size="13.6" font-weight="400" fill="#374151">HTML</text><rect x="746.48" y="896.8560000000001" width="46.032" height="29" rx="14.5" fill="#E5E7EB"/><text x="758.48" y="916.3560000000001" font-family="Inter, Arial, sans-serif" font-size="13.6" font-weight="400" fill="#374151">CSS</text><rect x="800.5120000000001" y="896.8560000000001" width="75.408" height="29" rx="14.5" fill="#E5E7EB"/><text x="812.5120000000001" y="916.3560000000001" font-family="Inter, Arial, sans-serif" font-size="13.6" font-weight="400" fill="#374151">Node.js</text><rect x="883.9200000000001" y="896.8560000000001" width="90.096" height="29" rx="14.5" fill="#E5E7EB"/><text x="895.9200000000001" y="916.3560000000001" font-family="Inter, Arial, sans-serif" font-size="13.6" font-weight="400" fill="#374151">REST APIs</text><rect x="982.0160000000001" y="896.8560000000001" width="97.44" height="29" rx="14.5" fill="#E5E7EB"/><text x="994.0160000000001" y="916.3560000000001" font-family="Inter, Arial, sans-serif" font-size="13.6" font-weight="400" fill="#374151">PostgreSQL</text><rect x="1087.4560000000001" y="896.8560000000001" width="53.376000000000005" height="29" rx="14.5" fill="#E5E7EB"/><text x="1099.4560000000001" y="916.3560000000001" font-family="Inter, Arial, sans-serif" font-size="13.6" font-weight="400" fill="#374151">Java</text><rect x="256" y="933.8560000000001" width="46.032" height="29" rx="14.5" fill="#E5E7EB"/><text x="268" y="953.3560000000001" font-family="Inter, Arial, sans-serif" font-size="13.6" font-weight="400" fill="#374151">RAG</text><rect x="310.032" y="933.8560000000001" width="97.44" height="29" rx="14.5" fill="#E5E7EB"/><text x="322.032" y="953.3560000000001" font-family="Inter, Arial, sans-serif" font-size="13.6" font-weight="400" fill="#374151">OpenAI API</text><rect x="415.472" y="933.8560000000001" width="90.096" height="29" rx="14.5" fill="#E5E7EB"/><text x="427.472" y="953.3560000000001" font-family="Inter, Arial, sans-serif" font-size="13.6" font-weight="400" fill="#374151">LangChain</text><rect x="513.568" y="933.8560000000001" width="68.064" height="29" rx="14.5" fill="#E5E7EB"/><text x="525.568" y="953.3560000000001" font-family="Inter, Arial, sans-serif" font-size="13.6" font-weight="400" fill="#374151">Qdrant</text><rect x="589.632" y="933.8560000000001" width="46.032" height="29" rx="14.5" fill="#E5E7EB"/><text x="601.632" y="953.3560000000001" font-family="Inter, Arial, sans-serif" font-size="13.6" font-weight="400" fill="#374151">Git</text><rect x="643.664" y="933.8560000000001" width="68.064" height="29" rx="14.5" fill="#E5E7EB"/><text x="655.664" y="953.3560000000001" font-family="Inter, Arial, sans-serif" font-size="13.6" font-weight="400" fill="#374151">Docker</text></g><g id="Ações"><g id="Botão / Ver projetos"><rect x="256" y="994.8560000000001" width="155.2" height="44" rx="10" fill="#374151" stroke="#374151" stroke-width="1"/><text x="276" y="1022.8560000000001" font-family="Inter, Arial, sans-serif" font-size="16" font-weight="600" fill="#fff">Ver projetos</text></g><g id="Botão / Fale comigo"><rect x="423.2" y="994.8560000000001" width="145.6" height="44" rx="10" fill="none" stroke="#374151" stroke-width="1"/><text x="443.2" y="1022.8560000000001" font-family="Inter, Arial, sans-serif" font-size="16" font-weight="600" fill="#374151">Fale comigo</text></g></g></g></g><g id="Footer"><rect x="0" y="1086.8560000000002" width="1440" height="66" rx="0" fill="#FFFFFF"/><rect x="0" y="1086.8560000000002" width="1440" height="1" rx="0" fill="#D1D5DB"/><text x="256" y="1124.8560000000002" font-family="Inter, Arial, sans-serif" font-size="14.4" font-weight="400" fill="#6B7280">© 2026 Arthur Domingos. Todos os direitos reservados.</text><circle cx="1140" cy="1119.8560000000002" r="10" fill="none" stroke="#374151" stroke-width="1.5"/><circle cx="1174" cy="1119.8560000000002" r="10" fill="none" stroke="#374151" stroke-width="1.5"/></g><g id="Header"><rect x="0" y="0" width="1440" height="64" rx="0" fill="#FFFFFF"/><line x1="0" y1="64" x2="1440" y2="64" stroke="#D1D5DB" stroke-width="1"/><text x="256" y="39" font-family="Roboto Mono, monospace" font-size="18.4" font-weight="700" fill="#374151">&lt;Arthur /&gt;</text><rect x="739.52" y="16" width="67.2" height="34" rx="8" fill="#E5E7EB"/><text x="751.52" y="38" font-family="Inter, Arial, sans-serif" font-size="16" font-weight="600" fill="#111827">Sobre</text><text x="826.72" y="38" font-family="Inter, Arial, sans-serif" font-size="16" font-weight="400" fill="#6B7280">Projetos</text><text x="927.84" y="38" font-family="Inter, Arial, sans-serif" font-size="16" font-weight="400" fill="#6B7280">Experiências</text><text x="1063.52" y="38" font-family="Inter, Arial, sans-serif" font-size="16" font-weight="400" fill="#6B7280">Contato</text><rect x="1144" y="17" width="40" height="32" rx="8" fill="none" stroke="#374151" stroke-width="1"/><text x="1164" y="38" font-family="Inter, Arial, sans-serif" font-size="14" font-weight="600" fill="#374151" text-anchor="middle">EN</text></g></g></svg>
